<?xml version="1.0" encoding="utf-8"?>
<!-- Generator: Adobe Illustrator 19.0.0, SVG Export Plug-In . SVG Version: 6.00 Build 0)  -->
<!DOCTYPE svg PUBLIC "-//W3C//DTD SVG 1.1//EN" "http://www.w3.org/Graphics/SVG/1.1/DTD/svg11.dtd">
<svg version="1.1" id="Layer_1" xmlns="http://www.w3.org/2000/svg" xmlns:xlink="http://www.w3.org/1999/xlink" x="0px" y="0px"
	 viewBox="-284 380.5 41.5 33.5" style="enable-background:new -284 380.5 41.5 33.5;" xml:space="preserve">
<style type="text/css">
	.st0{fill:#E41F59;}
	.st1{fill:#FFFFFF;}
</style>
<path class="st0" d="M-253.4,380.9h-20.1c-5.5,0-10,4.5-10,10v22.2h30.1c5.5,0,10-4.5,10-10v-12.2
	C-243.4,385.4-247.9,380.9-253.4,380.9z"/>
<polygon class="st1" points="-258.9,390.7 -257.2,390.7 -257.2,394.7 -258,395.5 -258.8,394.7 -258.8,390.7 "/>
<path class="st1" d="M-269.2,400.9h-4.2v2.4h-2.2v-10.4h2.1h3h1.3c1.5,0,2.7,1.2,2.7,2.7v2.6C-266.5,399.7-267.7,400.9-269.2,400.9z
	"/>
<polygon class="st1" points="-265,400.9 -260.8,396.7 -264.6,392.9 -262.2,392.9 -258.8,396.3 -258.8,397.2 -262.5,400.9 "/>
<polygon class="st1" points="-257.2,403.1 -258.9,403.1 -258.9,398.7 -258.1,397.9 -257.3,398.7 -257.3,403.1 "/>
<polygon class="st1" points="-253.4,400.9 -257.1,397.2 -257.1,396.3 -253.7,392.9 -251.3,392.9 -255.1,396.7 -250.9,400.9 "/>
<path class="st0" d="M-269.9,395.1h-3.5v3.5h3.5c0.7,0,1.2-0.5,1.2-1.2v-1.2C-268.7,395.6-269.3,395.1-269.9,395.1z"/>
</svg>
