<?xml version="1.0" encoding="utf-8"?>
<!-- Generator: Adobe Illustrator 19.0.0, SVG Export Plug-In . SVG Version: 6.00 Build 0)  -->
<!DOCTYPE svg PUBLIC "-//W3C//DTD SVG 1.1//EN" "http://www.w3.org/Graphics/SVG/1.1/DTD/svg11.dtd">
<svg version="1.1" id="Layer_1" xmlns="http://www.w3.org/2000/svg" xmlns:xlink="http://www.w3.org/1999/xlink" x="0px" y="0px"
	 viewBox="0 0 297.8 31.8" enable-background="new 0 0 297.8 31.8" xml:space="preserve">
<path fill-rule="evenodd" clip-rule="evenodd" fill="#B1AFB3" d="M37.2,14.5c0,1.2-1,2.2-2.2,2.2h-6.4v-6.5H35c1.2,0,2.2,1,2.2,2.2
	L37.2,14.5z M28.7,20.8v4.5h-4.1V6.2h3.8h5.6h2.4c2.7,0,4.9,2.2,4.9,4.9l0,4.8c0,2.2-1.5,4.1-3.6,4.7l4.6,4.6h-5.2l-4.5-4.5H28.7z
	 M5.1,20.8v4.5H1.1V6.2h3.8h5.6h2.4c2.7,0,4.9,2.2,4.9,4.9l0,4.8c0,2.7-2.2,4.9-4.9,4.9H5.1z M13.7,14.5c0,1.2-1,2.2-2.2,2.2H5.1
	v-6.5h6.4c1.2,0,2.2,1,2.2,2.2L13.7,14.5z M155.2,25.2h12.2v-4.1h-8.1v-3.5h8.1v-4.1h-8.1v-3.4h8.1V6.2h-12.2V25.2z M151.4,6.2h-4.5
	L141,17.6l-5.9-11.4h-4.6l10.1,19.5h0.8L151.4,6.2z M126.8,25.2V6.2h-4.3v19.1H126.8z M106.3,10.2v15h4.1v-15h6.9V6.2H99.4v4.1
	H106.3z M94.1,25.2V6.2h-4.3v19.1H94.1z M81.7,6.2h-2.1l-8,8l-8-8h-2.1v19.1h4.1V13.8l6.1,6.1l6.1-6.1v11.4h4.1V6.2z M53.3,25.2V6.2
	h-4.3v19.1H53.3z"/>
<path fill-rule="evenodd" clip-rule="evenodd" fill="#FFFFFF" d="M234.3,20.8v4.5h-4.1V11c0-2.7,2.2-4.9,4.9-4.9l6.5,0
	c2.7,0,4.9,2.2,4.9,4.9v14.2h-4.1v-4.5H234.3z M234.3,16.7h8.1v-4.3c0-1.2-1-2.2-2.2-2.2l-3.7,0c-1.2,0-2.2,1-2.2,2.2V16.7z
	 M266.5,14.5c0,1.2-1,2.2-2.2,2.2h-6.4v-6.5h6.4c1.2,0,2.2,1,2.2,2.2L266.5,14.5z M257.9,20.8v4.5h-4.1V6.2h3.8h5.6h2.4
	c2.7,0,4.9,2.2,4.9,4.9l0,4.8c0,2.2-1.5,4.1-3.6,4.7l4.6,4.6h-5.2l-4.5-4.5H257.9z M211.9,20.8v4.5h-4.1V6.2h3.8h5.6h2.4
	c2.7,0,4.9,2.2,4.9,4.9l0,4.8c0,2.7-2.2,4.9-4.9,4.9H211.9z M220.4,14.5c0,1.2-1,2.2-2.2,2.2h-6.4v-6.5h6.4c1.2,0,2.2,1,2.2,2.2
	L220.4,14.5z M200.9,6.2v4.1l-10.1,0c-0.8,0-1.5,0.7-1.5,1.5l0,0.5c0,0.8,0.7,1.5,1.5,1.5h6.2c2.7,0,4.9,2.2,4.9,4.9l0,1.8
	c0,2.7-2.2,4.9-4.9,4.9h-10.7v-4.1h10.1c0.8,0,1.5-0.7,1.5-1.5l0-0.5c0-0.8-0.7-1.5-1.5-1.5h-6.2c-2.7,0-4.9-2.2-4.9-4.9l0-1.8
	c0-2.7,2.2-4.9,4.9-4.9H200.9z M282.3,16.3l8.9,8.9h5.7l-9.9-9.9l9.1-9.1h-5.7l-8.1,8.1V0.9h-4.1v29.5h4.1V16.3z"/>
</svg>
