<?xml version="1.0" encoding="utf-8"?>
<!-- Generator: Adobe Illustrator 19.0.0, SVG Export Plug-In . SVG Version: 6.00 Build 0)  -->
<!DOCTYPE svg PUBLIC "-//W3C//DTD SVG 1.1//EN" "http://www.w3.org/Graphics/SVG/1.1/DTD/svg11.dtd">
<svg version="1.1" id="Layer_1" xmlns="http://www.w3.org/2000/svg" xmlns:xlink="http://www.w3.org/1999/xlink" x="0px" y="0px"
	 viewBox="-133 364.2 344.5 65.8" style="enable-background:new -133 364.2 344.5 65.8;" xml:space="preserve">
<style type="text/css">
	.st0{fill:#E41F59;}
	.st1{fill:#FFFFFF;}
	.st2{fill:#6E6C74;}
	.st3{fill:#3D3A44;}
</style>
<path class="st0" d="M201.5,364.2h-20.1c-5.5,0-10,4.5-10,10v22.2h30.1c5.5,0,10-4.5,10-10v-12.2C211.5,368.7,207,364.2,201.5,364.2
	z"/>
<polygon class="st1" points="196,374 197.7,374 197.7,378 196.9,378.8 196.1,378 196.1,374 "/>
<path class="st1" d="M185.7,384.2h-4.2v2.4h-2.2v-10.4h2.1h3h1.3c1.5,0,2.7,1.2,2.7,2.7v2.6C188.4,383,187.2,384.2,185.7,384.2z"/>
<polygon class="st1" points="189.9,384.2 194.1,380 190.3,376.2 192.7,376.2 196.1,379.6 196.1,380.5 192.4,384.2 "/>
<polygon class="st1" points="197.7,386.4 196,386.4 196,382 196.8,381.2 197.6,382 197.6,386.4 "/>
<polygon class="st1" points="201.5,384.2 197.8,380.5 197.8,379.6 201.2,376.2 203.6,376.2 199.8,380 204,384.2 "/>
<polygon class="st2" points="22.4,423.5 34.6,423.5 34.6,419.4 26.5,419.4 26.5,415.9 34.6,415.9 34.6,411.8 26.5,411.8 26.5,408.4 
	34.6,408.4 34.6,404.3 22.4,404.3 "/>
<polygon class="st2" points="18.7,404.5 14.2,404.5 8.3,415.9 2.4,404.5 -2.2,404.5 7.9,424 8.7,424 "/>
<polygon class="st2" points="-5.9,423.5 -5.9,404.5 -10.2,404.5 -10.2,423.6 -5.9,423.6 "/>
<polygon class="st2" points="-26.5,408.5 -26.5,423.5 -22.4,423.5 -22.4,408.5 -15.5,408.5 -15.5,404.4 -33.4,404.4 -33.4,408.5 "/>
<polygon class="st2" points="-38.6,423.5 -38.6,404.5 -42.9,404.5 -42.9,423.6 -38.6,423.6 "/>
<polygon class="st2" points="-51.1,404.5 -53.2,404.5 -61.2,412.5 -69.2,404.5 -71.3,404.5 -71.3,423.6 -67.2,423.6 -67.2,412.1 
	-61.1,418.2 -55,412.1 -55,423.5 -51.1,423.5 "/>
<polygon class="st2" points="-79.5,423.5 -79.5,404.5 -83.8,404.5 -83.8,423.6 -79.5,423.6 "/>
<path class="st3" d="M68.1,404.5v4.1H58c-0.8,0-1.5,0.7-1.5,1.5v0.5c0,0.8,0.7,1.5,1.5,1.5h6.2c2.7,0,4.9,2.2,4.9,4.9v1.8
	c0,2.7-2.2,4.9-4.9,4.9H53.5v-4.1h10.1c0.8,0,1.5-0.7,1.5-1.5v-0.5c0-0.8-0.7-1.5-1.5-1.5h-6.2c-2.7,0-4.9-2.2-4.9-4.9v-1.8
	c0-2.7,2.2-4.9,4.9-4.9L68.1,404.5L68.1,404.5z"/>
<polygon class="st3" points="149.5,414.6 158.4,423.5 164.1,423.5 154.2,413.6 163.3,404.5 157.6,404.5 149.5,412.6 149.5,399.2 
	145.4,399.2 145.4,428.7 149.5,428.7 "/>
<path class="st2" d="M-95,418.9c2.1-0.6,3.6-2.5,3.6-4.7v-4.8c0-2.7-2.2-4.9-4.9-4.9h-2.4h-5.6h-3.8v19.1h4v-4.5h4l4.5,4.4h5.2
	L-95,418.9z M-95.5,412.8c0,1.2-1,2.2-2.2,2.2h-6.4v-6.5h6.4c1.2,0,2.2,1,2.2,2.2V412.8z"/>
<path class="st2" d="M-119.9,404.5h-2.4h-5.6h-3.8v19.1h4.1v-4.5h7.7c2.7,0,4.9-2.2,4.9-4.9v-4.8
	C-115,406.7-117.2,404.5-119.9,404.5z M-119.1,412.8c0,1.2-1,2.2-2.2,2.2h-6.3v-6.5h6.4c1.2,0,2.2,1,2.2,2.2L-119.1,412.8z"/>
<path class="st3" d="M108.9,404.4h-6.5c-2.7,0-4.9,2.2-4.9,4.9v14.3h4.1v-4.5l8.1-0.1v4.5h4.1v-14.2
	C113.8,406.6,111.6,404.4,108.9,404.4z M109.7,415h-8.1v-4.3c0-1.2,1-2.2,2.2-2.2h3.7c1.2,0,2.2,1,2.2,2.2V415z"/>
<path class="st3" d="M134.2,418.9c2.1-0.6,3.6-2.5,3.6-4.7v-4.8c0-2.7-2.2-4.9-4.9-4.9h-2.4h-5.6h-3.8v19.1h4.1v-4.5l3.9-0.1
	l4.5,4.5h5.2L134.2,418.9z M133.7,412.8c0,1.2-1,2.2-2.2,2.2h-6.4v-6.5h6.4c1.2,0,2.2,1,2.2,2.2V412.8z"/>
<path class="st3" d="M86.8,404.5h-2.4h-5.6H75v19.1h4.1v-4.5h7.7c2.7,0,4.9-2.2,4.9-4.9v-4.8C91.7,406.7,89.5,404.5,86.8,404.5z
	 M87.7,412.8c0,1.2-1,2.2-2.2,2.2h-6.4v-6.5h6.4c1.2,0,2.2,1,2.2,2.2V412.8z"/>
<path class="st0" d="M185,378.4h-3.5v3.5h3.5c0.7,0,1.2-0.5,1.2-1.2v-1.2C186.2,378.9,185.6,378.4,185,378.4z"/>
</svg>
