<?xml version="1.0" encoding="utf-8"?>
<!-- Generator: Adobe Illustrator 19.2.0, SVG Export Plug-In . SVG Version: 6.00 Build 0)  -->
<svg version="1.1" id="Layer_1" xmlns="http://www.w3.org/2000/svg" xmlns:xlink="http://www.w3.org/1999/xlink" x="0px" y="0px"
	 viewBox="0 0 16.8 13.5" style="enable-background:new 0 0 16.8 13.5;" xml:space="preserve">
<style type="text/css">
	.st0{fill:#FFFFFF;}
</style>
<g>
	<path class="st0" d="M5.6,6H4.1v1.5h1.5c0.3,0,0.5-0.2,0.5-0.5V6.5C6.1,6.2,5.9,6,5.6,6z"/>
	<path class="st0" d="M12.6,0H4.2C1.9,0,0,1.9,0,4.2v9.3h12.6c2.3,0,4.2-1.9,4.2-4.2V4.2C16.8,1.9,14.9,0,12.6,0z M10.3,4.1H11v1.7
		l-0.4,0.4l-0.4-0.4L10.3,4.1L10.3,4.1z M5.9,8.4H4.1v1H3.2V5h0.9h1.3h0.5C6.5,5,7,5.5,7,6.1v1.1C7.1,7.9,6.6,8.4,5.9,8.4z M7.7,8.4
		l1.7-1.7L7.8,5.1h1l1.4,1.4v0.4L8.6,8.5L7.7,8.4L7.7,8.4z M11,9.3h-0.7V7.5l0.4-0.4l0.4,0.4L11,9.3L11,9.3z M12.6,8.4L11,6.8V6.4
		L12.4,5h1l-1.6,1.6l1.7,1.7L12.6,8.4L12.6,8.4z"/>
</g>
</svg>
